<?xml version="1.0" standalone="no"?>
<!DOCTYPE svg PUBLIC "-//W3C//DTD SVG 20010904//EN"
 "http://www.w3.org/TR/2001/REC-SVG-20010904/DTD/svg10.dtd">
<svg version="1.0" xmlns="http://www.w3.org/2000/svg"
 width="960.000000pt" height="743.000000pt" viewBox="0 0 960.000000 743.000000"
 preserveAspectRatio="xMidYMid meet">

<g transform="translate(0.000000,743.000000) scale(0.100000,-0.100000)"
fill="#000000" stroke="none">
<path d="M5357 7368 c-14 -24 -54 -100 -91 -170 -77 -146 -54 -134 -262 -143
l-140 -7 -137 161 c-76 89 -143 161 -150 161 -6 -1 -88 -15 -182 -33 l-170
-33 -5 -193 -5 -194 -125 -42 c-69 -24 -144 -50 -168 -59 l-44 -16 -206 111
c-114 62 -211 112 -217 112 -5 0 -79 -37 -162 -82 -145 -79 -153 -84 -153
-113 0 -29 25 -331 34 -411 4 -34 0 -40 -38 -72 l-42 -34 -258 50 c-143 27
-264 49 -271 47 -6 -2 -60 -58 -120 -126 l-108 -123 38 -286 c29 -222 35 -287
25 -293 -6 -4 -46 -10 -89 -14 -42 -4 -112 -11 -156 -17 -44 -5 -98 -12 -120
-15 l-41 -5 -43 -158 -43 -158 51 -306 c28 -168 51 -308 51 -310 0 -3 -26 -15
-57 -28 -32 -12 -59 -23 -61 -24 -1 -1 6 -47 16 -101 11 -54 50 -280 88 -500
l69 -401 95 -7 c52 -3 149 -6 216 -6 l121 0 186 90 c103 50 190 90 194 90 7 0
78 -60 186 -157 l38 -34 17 -156 16 -157 93 -59 c60 -38 95 -67 98 -81 2 -11
13 -116 24 -233 l20 -211 104 -178 104 -178 93 -38 c52 -21 98 -38 103 -38 5
0 46 29 92 64 l82 64 9 -96 9 -96 220 -113 c170 -88 241 -119 313 -137 52 -14
96 -27 99 -29 3 -3 24 -121 46 -262 37 -231 43 -256 62 -260 52 -12 430 -45
433 -38 2 4 49 116 106 248 l103 240 94 8 c52 5 96 11 98 13 2 2 10 124 18
271 7 148 17 280 21 294 l7 27 199 -99 c109 -55 201 -98 203 -95 2 2 16 143
30 312 14 170 29 318 33 330 7 17 31 24 181 52 95 17 174 30 175 29 3 -3 -18
-231 -21 -235 -2 -2 -41 16 -88 40 -48 23 -88 40 -91 37 -2 -2 -25 -222 -49
-489 l-44 -485 13 -255 c7 -140 13 -284 13 -319 l1 -63 93 4 94 4 174 -239
c95 -131 176 -240 179 -241 6 -3 428 99 434 105 2 2 18 83 35 179 17 96 35
198 40 225 6 28 18 92 27 143 l16 93 87 43 c58 29 91 41 101 35 8 -5 123 -74
255 -155 132 -81 247 -149 256 -151 16 -5 209 136 296 214 l41 38 116 469 117
469 -126 189 -125 189 19 87 c11 48 27 121 36 162 65 306 139 607 151 616 7 6
27 69 43 140 17 71 69 298 116 504 l86 375 -3 165 -3 164 -142 40 c-106 29
-143 43 -143 55 0 8 25 138 57 287 l56 272 -79 147 -79 147 -292 -4 c-161 -2
-293 -2 -293 0 0 1 21 129 46 284 25 154 42 284 37 288 -63 55 -265 210 -273
210 -7 0 -119 -34 -249 -76 l-237 -77 -100 57 c-54 32 -102 61 -106 65 -5 4 2
96 13 204 12 109 20 199 18 201 -10 7 -337 126 -348 126 -7 0 -91 -59 -187
-132 l-175 -131 -117 26 c-64 15 -144 33 -177 40 l-60 12 -49 180 c-26 99 -50
181 -51 183 -3 3 -331 32 -367 32 -10 0 -28 -18 -41 -42z m158 -1464 c324 -53
641 -244 787 -474 250 -391 86 -845 -392 -1085 -84 -42 -212 -84 -340 -111
-131 -28 -421 -26 -555 4 -146 33 -219 57 -320 104 -268 125 -436 303 -521
551 -39 116 -34 281 13 407 43 114 93 191 188 286 133 134 263 211 470 277
207 66 434 80 670 41z"/>
<path d="M5210 5469 c-187 -21 -326 -107 -401 -249 -19 -37 -24 -60 -24 -125
1 -69 5 -87 29 -132 58 -105 169 -187 311 -229 84 -25 260 -25 335 0 190 64
296 169 319 318 23 143 -86 301 -255 371 -104 43 -204 58 -314 46z"/>
<path d="M1315 3940 l-210 -99 -227 6 c-126 3 -228 3 -228 -1 0 -4 16 -89 35
-189 29 -155 113 -497 249 -1012 l31 -120 81 3 81 3 88 -357 89 -357 118 -148
c65 -82 120 -149 123 -149 2 0 132 47 287 105 155 58 286 105 291 105 6 0 40
-24 76 -53 83 -67 178 -137 186 -137 3 0 3 15 0 33 -97 565 -157 897 -164 917
-5 14 -12 36 -15 50 -6 31 -136 766 -136 773 0 2 -37 28 -82 58 -46 29 -85 54
-87 56 -3 2 -70 345 -71 360 0 9 -282 253 -292 252 -7 0 -107 -45 -223 -99z"/>
<path d="M3200 2250 l-205 -157 -108 45 c-60 24 -109 43 -111 41 -12 -16 -206
-549 -206 -566 0 -12 22 -158 49 -325 27 -167 59 -367 71 -445 l23 -142 146
-77 c80 -42 167 -88 193 -103 l46 -25 49 39 c41 34 183 160 367 326 l51 46 98
-30 c53 -17 99 -28 101 -26 4 6 -69 917 -74 922 -3 2 -52 27 -110 57 -58 29
-109 56 -114 61 -5 5 -20 119 -32 255 -13 135 -24 249 -26 254 -2 4 -95 -63
-208 -150z"/>
</g>
</svg>
