<?xml version="1.0" standalone="no"?>
<!DOCTYPE svg PUBLIC "-//W3C//DTD SVG 20010904//EN"
 "http://www.w3.org/TR/2001/REC-SVG-20010904/DTD/svg10.dtd">
<svg version="1.0" xmlns="http://www.w3.org/2000/svg"
 width="300.000000pt" height="266.000000pt" viewBox="0 0 300.000000 266.000000"
 preserveAspectRatio="xMidYMid meet">

<g transform="translate(0.000000,266.000000) scale(0.100000,-0.100000)"
fill="#000000" stroke="none">
<path d="M1879 2651 c-78 -26 -115 -87 -106 -176 14 -140 166 -297 302 -312
92 -11 155 35 155 114 l0 44 43 -23 c62 -34 198 -173 241 -248 93 -159 139
-327 139 -510 1 -125 -20 -240 -43 -240 -6 0 -10 4 -10 9 0 9 -83 74 -141 109
-19 12 -60 28 -90 36 -73 19 -123 9 -255 -50 -58 -26 -106 -45 -109 -43 -2 2
3 31 11 64 8 33 15 107 16 165 1 86 -3 116 -22 165 -29 76 -85 135 -129 135
-47 0 -329 -134 -367 -174 l-32 -33 -78 38 c-111 53 -197 80 -275 86 -75 6
-79 10 -79 91 0 53 -11 75 -58 116 -53 47 -98 75 -143 91 -40 15 -42 14 -68
-14 -14 -15 -46 -68 -71 -117 -42 -83 -45 -95 -48 -184 -2 -53 1 -113 6 -134
11 -37 10 -40 -36 -92 -26 -30 -52 -52 -59 -49 -7 2 -10 -2 -7 -9 7 -18 -22
-39 -39 -29 -18 10 -198 183 -191 183 3 0 14 -5 25 -10 10 -6 19 -8 19 -6 0 7
-76 46 -90 46 -6 0 20 -27 57 -59 80 -69 169 -159 162 -164 -2 -2 -25 -11 -51
-21 -55 -20 -98 -66 -98 -104 0 -36 22 -110 27 -95 4 10 10 9 26 -2 30 -21
107 -19 186 5 62 19 78 20 207 11 92 -6 169 -18 229 -35 125 -35 129 -34 155
19 17 36 21 59 18 115 l-3 71 38 10 c65 17 72 12 75 -58 3 -67 -9 -127 -32
-158 -8 -11 -32 -22 -62 -26 l-49 -8 45 4 c25 1 54 6 65 9 15 5 31 -2 60 -28
32 -28 36 -35 21 -36 -11 0 -17 -2 -14 -5 3 -3 34 -1 69 4 143 23 262 32 421
32 154 1 347 -15 375 -30 6 -3 -88 -6 -210 -7 -211 -1 -345 -10 -519 -36 -68
-10 -75 -13 -59 -24 27 -19 59 -101 72 -185 7 -41 17 -77 22 -80 5 -4 -13 -43
-39 -88 -47 -79 -50 -81 -81 -76 -17 3 -34 1 -37 -4 -3 -5 2 -7 11 -5 10 2 24
0 32 -5 10 -7 2 -28 -38 -104 -47 -87 -127 -285 -99 -245 11 15 18 14 78 -19
87 -48 98 -59 111 -106 10 -37 9 -42 -13 -59 l-23 -19 25 12 c14 6 85 68 158
137 72 68 132 119 132 113 0 -6 4 -11 10 -11 5 0 7 7 4 15 -6 14 47 88 91 128
11 10 14 16 8 12 -15 -7 -18 11 -3 20 6 3 10 15 10 26 0 20 24 26 35 9 3 -5
-2 -10 -11 -10 -13 0 -8 -7 16 -25 19 -14 44 -25 57 -25 27 0 73 -41 73 -64 0
-8 -9 -18 -21 -21 -11 -4 -18 -9 -16 -12 10 -10 67 28 101 69 l37 43 -78 11
c-43 6 -101 21 -130 33 l-52 23 29 76 c15 43 31 85 35 95 4 10 18 17 35 17 15
0 68 12 116 26 102 30 194 40 243 27 31 -8 36 -14 46 -58 7 -28 19 -67 28 -89
22 -51 22 -52 -13 -66 -17 -7 -29 -15 -26 -17 2 -2 18 3 35 11 30 16 31 16 47
-11 51 -82 146 -143 224 -143 27 0 30 -3 30 -33 0 -28 -7 -39 -44 -65 -44 -32
-75 -89 -61 -112 3 -5 1 -10 -6 -10 -7 0 -10 -3 -7 -6 4 -3 21 2 38 11 27 14
34 15 41 3 7 -10 9 -9 9 4 0 9 12 30 26 47 14 17 21 31 15 31 -6 0 -18 -11
-27 -26 -17 -25 -72 -60 -81 -50 -15 14 21 76 60 102 23 16 45 32 48 37 3 4
14 -2 24 -13 15 -16 31 -20 84 -20 62 0 115 -9 152 -24 15 -6 17 9 24 136 9
181 1 204 -77 245 -29 15 -74 48 -99 74 -39 39 -50 60 -81 155 -20 60 -44 138
-53 172 l-16 64 30 73 c100 239 73 603 -65 877 -123 245 -328 451 -520 524
-73 27 -190 40 -235 25z m511 -226 c19 -19 32 -35 29 -35 -3 0 -20 16 -39 35
-19 19 -32 35 -29 35 3 0 20 -16 39 -35z m-489 -152 c13 -16 12 -17 -3 -4 -10
7 -18 15 -18 17 0 8 8 3 21 -13z m509 -58 c19 -19 32 -35 29 -35 -3 0 -20 16
-39 35 -19 19 -32 35 -29 35 3 0 20 -16 39 -35z m-1600 -119 c0 -2 -8 -10 -17
-17 -16 -13 -17 -12 -4 4 13 16 21 21 21 13z m2 -116 c10 -14 28 -65 40 -114
l22 -89 -24 -16 c-13 -9 -54 -42 -90 -73 -36 -32 -68 -58 -72 -58 -12 0 -20
86 -16 167 3 62 10 92 35 146 30 62 35 68 59 65 15 -2 35 -14 46 -28z m1094
-257 c59 -64 78 -257 36 -390 -31 -100 -39 -106 -131 -101 -63 2 -89 9 -146
38 l-70 35 -1 65 c0 47 -7 76 -22 105 -12 22 -22 46 -22 54 0 52 118 152 231
196 82 31 95 31 125 -2z m-1196 -106 c0 -2 -19 -21 -42 -42 l-43 -40 40 43
c36 39 45 47 45 39z m385 -302 c0 -23 -5 -30 -19 -30 -28 0 -43 29 -26 50 21
25 45 14 45 -20z m520 -43 c-3 -3 -11 0 -18 7 -9 10 -8 11 6 5 10 -3 15 -9 12
-12z m326 -15 c-10 -9 -11 -8 -5 6 3 10 9 15 12 12 3 -3 0 -11 -7 -18z"/>
<path d="M390 1636 c0 -3 9 -10 20 -16 11 -6 20 -8 20 -6 0 3 -9 10 -20 16
-11 6 -20 8 -20 6z"/>
<path d="M440 1607 c0 -2 26 -23 58 -47 31 -24 51 -35 43 -26 -15 18 -101 80
-101 73z"/>
<path d="M390 1224 c0 -6 7 -19 16 -30 14 -18 14 -18 3 6 -14 31 -19 36 -19
24z"/>
<path d="M433 1147 c6 -13 17 -24 24 -24 9 0 5 9 -9 24 -12 13 -23 23 -24 23
-1 0 3 -10 9 -23z"/>
<path d="M736 1141 c55 -14 56 -18 6 -94 -25 -40 -61 -105 -78 -146 -18 -41
-38 -79 -46 -86 -20 -19 -79 -7 -86 17 -4 15 -7 17 -14 6 -13 -20 -68 45 -68
81 0 15 -3 48 -6 73 l-6 44 -75 -18 c-40 -10 -100 -31 -131 -46 -31 -14 -77
-29 -102 -33 l-45 -6 40 -1 c25 -1 56 6 81 20 l42 22 56 -49 c60 -51 67 -66
17 -41 -34 18 -101 21 -101 6 0 -17 31 -72 37 -67 3 3 -2 16 -11 29 -23 32
-20 38 14 38 39 0 110 -36 110 -56 0 -26 -27 -69 -52 -82 -12 -6 -57 -13 -98
-15 -41 -2 31 -1 160 1 226 4 420 -7 474 -28 19 -7 22 -14 19 -34 -3 -15 -9
-29 -14 -32 -5 -3 -9 -10 -9 -15 0 -6 5 -7 10 -4 6 4 10 -5 10 -20 0 -42 28
-85 66 -101 50 -21 102 -5 149 47 47 52 65 96 65 157 l0 49 -196 196 c-160
161 -201 197 -222 196 -26 -1 -26 -1 4 -8z m258 -425 c57 -24 99 -101 82 -153
-9 -27 -58 -53 -103 -53 -30 0 -46 7 -64 26 -21 22 -24 35 -24 100 0 56 4 77
15 84 21 14 55 12 94 -4z"/>
<path d="M678 1133 c7 -3 16 -2 19 1 4 3 -2 6 -13 5 -11 0 -14 -3 -6 -6z"/>
<path d="M628 1123 c6 -2 18 -2 25 0 6 3 1 5 -13 5 -14 0 -19 -2 -12 -5z"/>
<path d="M1296 1121 c-3 -4 6 -6 19 -3 14 2 25 6 25 8 0 8 -39 4 -44 -5z"/>
<path d="M578 1113 c6 -2 18 -2 25 0 6 3 1 5 -13 5 -14 0 -19 -2 -12 -5z"/>
<path d="M1368 1073 c6 -2 18 -2 25 0 6 3 1 5 -13 5 -14 0 -19 -2 -12 -5z"/>
<path d="M1328 1063 c7 -3 16 -2 19 1 4 3 -2 6 -13 5 -11 0 -14 -3 -6 -6z"/>
<path d="M58 923 c7 -3 16 -2 19 1 4 3 -2 6 -13 5 -11 0 -14 -3 -6 -6z"/>
<path d="M12 912 c-8 -6 4 -16 40 -33 28 -13 58 -30 65 -37 7 -8 18 -12 25
-10 6 2 -18 20 -55 38 -41 22 -61 37 -54 42 7 4 8 8 2 8 -5 0 -16 -4 -23 -8z"/>
<path d="M71 795 c-17 -20 -31 -39 -31 -42 0 -4 3 -3 8 3 4 5 20 24 36 42 17
17 27 32 24 32 -3 0 -20 -16 -37 -35z"/>
<path d="M83 723 c9 -2 23 -2 30 0 6 3 -1 5 -18 5 -16 0 -22 -2 -12 -5z"/>
<path d="M28 713 c7 -3 16 -2 19 1 4 3 -2 6 -13 5 -11 0 -14 -3 -6 -6z"/>
<path d="M1320 609 c-22 -18 -22 -19 -3 -10 12 6 25 16 28 21 9 15 3 12 -25
-11z"/>
<path d="M843 565 c0 -27 2 -38 4 -22 2 15 2 37 0 50 -2 12 -4 0 -4 -28z"/>
<path d="M1218 547 c-61 -39 -106 -73 -68 -52 41 23 140 87 140 91 0 6 -2 6
-72 -39z"/>
<path d="M2295 549 c-22 -10 -29 -16 -15 -13 28 7 80 33 65 33 -5 0 -28 -9
-50 -20z"/>
<path d="M2165 510 c-27 -7 -28 -8 -5 -8 14 0 34 3 45 8 25 11 2 11 -40 0z"/>
<path d="M850 506 c0 -3 14 -12 30 -21 17 -9 30 -13 30 -11 0 3 -13 12 -30 21
-16 9 -30 13 -30 11z"/>
<path d="M1104 474 c-18 -14 -18 -15 4 -4 12 6 22 13 22 15 0 8 -5 6 -26 -11z"/>
<path d="M930 460 c8 -5 20 -10 25 -10 6 0 3 5 -5 10 -8 5 -19 10 -25 10 -5 0
-3 -5 5 -10z"/>
<path d="M978 443 c7 -3 16 -2 19 1 4 3 -2 6 -13 5 -11 0 -14 -3 -6 -6z"/>
<path d="M1898 416 c-18 -18 -50 -39 -71 -46 -21 -6 -36 -14 -34 -16 2 -3 17
0 32 6 16 6 34 9 42 6 7 -3 13 -1 13 4 0 5 14 25 31 45 39 45 31 46 -13 1z"/>
<path d="M1950 370 c-8 -5 -10 -10 -5 -10 6 0 17 5 25 10 8 5 11 10 5 10 -5 0
-17 -5 -25 -10z"/>
<path d="M1897 349 c-9 -5 -22 -7 -27 -4 -6 3 -10 1 -10 -4 0 -6 6 -11 13 -11
15 1 66 29 52 29 -5 0 -18 -4 -28 -10z"/>
<path d="M2885 211 c-49 -43 -93 -77 -97 -74 -5 2 -8 -3 -8 -12 0 -16 52 25
164 127 73 67 34 39 -59 -41z"/>
<path d="M1202 247 c-17 -13 -42 -37 -54 -53 -16 -21 -10 -18 23 12 24 23 53
46 64 52 11 6 15 12 9 12 -5 0 -24 -11 -42 -23z"/>
<path d="M2769 217 c-31 -28 -64 -64 -74 -79 -9 -15 -21 -25 -26 -22 -10 6
-12 -9 -3 -19 4 -4 24 18 45 47 42 59 65 74 72 48 4 -13 5 -12 6 4 0 12 10 33
22 48 30 38 21 32 -42 -27z"/>
<path d="M1236 185 c-11 -8 -29 -16 -40 -16 -18 -1 -18 -2 -3 -6 15 -4 16 -7
5 -21 -6 -10 5 -1 25 17 33 31 42 42 35 41 -2 0 -12 -7 -22 -15z"/>
<path d="M2653 165 c0 -22 2 -30 4 -17 2 12 2 30 0 40 -3 9 -5 -1 -4 -23z"/>
<path d="M1133 153 c9 -2 23 -2 30 0 6 3 -1 5 -18 5 -16 0 -22 -2 -12 -5z"/>
<path d="M1280 99 c-30 -22 -64 -49 -75 -59 -26 -25 -32 -25 -38 -3 -4 14 -5
13 -6 -4 -1 -31 13 -36 35 -12 25 28 100 80 106 73 3 -2 13 7 22 21 9 14 15
25 14 24 -2 0 -28 -19 -58 -40z"/>
<path d="M1171 84 c0 -11 3 -14 6 -6 3 7 2 16 -1 19 -3 4 -6 -2 -5 -13z"/>
<path d="M1291 64 c0 -11 3 -14 6 -6 3 7 2 16 -1 19 -3 4 -6 -2 -5 -13z"/>
<path d="M1358 54 c-27 -13 -48 -27 -48 -29 0 -5 99 42 109 51 13 11 -20 0
-61 -22z"/>
<path d="M1280 31 c0 -6 4 -13 10 -16 6 -3 7 1 4 9 -7 18 -14 21 -14 7z"/>
</g>
</svg>
